<?xml version="1.0" standalone="no"?>
<!DOCTYPE svg PUBLIC "-//W3C//DTD SVG 20010904//EN"
 "http://www.w3.org/TR/2001/REC-SVG-20010904/DTD/svg10.dtd">
<svg version="1.0" xmlns="http://www.w3.org/2000/svg"
 width="704.000000pt" height="704.000000pt" viewBox="0 0 704.000000 704.000000"
 preserveAspectRatio="xMidYMid meet">
<metadata>
Created by potrace 1.14, written by Peter Selinger 2001-2017
</metadata>
<g transform="translate(0.000000,704.000000) scale(0.100000,-0.100000)"
fill="#000000" stroke="none">
<path d="M3325 6976 c-292 -82 -470 -136 -760 -231 -68 -23 -328 -116 -360
-130 -16 -7 -76 -32 -133 -55 -274 -113 -494 -255 -518 -334 -4 -12 -15 -33
-25 -47 -17 -24 -18 -42 -15 -145 2 -66 6 -130 9 -144 3 -14 8 -47 12 -75 5
-41 87 -450 115 -575 27 -123 123 -516 170 -695 23 -88 44 -171 46 -184 3 -14
7 -28 10 -33 3 -4 7 -16 9 -25 2 -10 12 -51 23 -92 l20 -73 -24 -35 c-21 -31
-31 -58 -51 -138 -3 -11 -7 -69 -8 -128 -3 -108 10 -193 39 -267 8 -19 23 -63
33 -97 17 -56 18 -66 5 -95 -20 -48 -23 -179 -6 -246 13 -48 13 -64 2 -102
-16 -56 -16 -203 0 -251 7 -20 22 -46 33 -57 l20 -22 -24 -23 c-12 -12 -28
-39 -34 -60 -13 -44 -9 -162 6 -181 8 -9 7 -25 -3 -58 -8 -28 -12 -83 -11
-144 2 -81 7 -111 29 -164 15 -36 29 -83 32 -105 8 -71 26 -129 49 -160 13
-18 24 -53 28 -86 4 -31 14 -73 22 -93 15 -36 76 -106 92 -106 4 0 8 -39 8
-87 0 -73 4 -96 23 -133 36 -67 103 -117 144 -107 13 4 22 -1 27 -16 5 -12 18
-47 30 -77 13 -30 25 -68 27 -85 17 -105 56 -177 108 -202 31 -15 34 -19 39
-80 8 -85 49 -173 103 -223 53 -48 91 -65 160 -69 6 -1 18 -17 27 -36 9 -20
28 -40 42 -47 13 -6 22 -15 19 -20 -13 -21 29 -109 75 -155 74 -78 179 -122
318 -136 23 -2 55 -12 70 -23 41 -27 246 -29 323 -4 35 12 60 15 71 10 78 -42
229 -19 316 47 65 50 80 69 100 133 10 30 24 59 32 64 33 20 149 133 190 186
64 80 108 181 110 251 1 17 9 29 24 36 34 16 59 75 61 147 1 33 8 72 16 86 19
35 39 118 35 141 -3 16 1 20 18 18 92 -9 160 107 159 269 -1 70 1 76 28 98 34
29 55 80 71 169 8 48 19 75 39 97 44 48 63 118 66 250 2 79 8 126 18 146 26
51 39 158 31 261 -10 138 -8 160 20 214 42 81 57 161 60 312 2 100 -2 163 -14
220 -15 74 -15 85 0 140 20 73 19 223 -2 280 -13 34 -13 47 -2 85 32 106 24
310 -15 411 -7 18 -6 41 4 80 87 326 228 877 237 929 3 14 10 43 16 65 15 60
99 453 106 505 4 24 8 47 10 50 1 3 6 25 9 50 3 25 9 56 12 70 3 14 8 92 11
173 5 120 3 151 -9 165 -8 9 -19 28 -25 42 -48 114 -259 237 -708 415 -11 5
-22 9 -25 10 -3 1 -12 4 -20 8 -246 94 -940 310 -1137 352 -12 3 -34 10 -48
15 -36 14 -27 15 -240 -44z m-1080 -3116 c28 -12 65 -28 83 -36 17 -8 47 -20
65 -28 93 -40 394 -136 505 -161 138 -31 263 -56 332 -65 47 -6 99 -13 115
-16 152 -22 218 -21 385 3 60 8 67 9 130 17 30 4 62 9 70 11 8 2 31 7 50 10
197 33 585 154 785 244 37 17 69 31 70 31 2 0 3 -64 4 -142 0 -79 3 -161 5
-183 10 -82 18 -130 27 -146 4 -9 5 -19 1 -23 -3 -4 -7 -26 -9 -49 -1 -23 -2
-49 -3 -57 -1 -8 1 -28 4 -45 7 -34 8 -249 2 -280 -10 -52 -19 -192 -21 -320
-1 -147 -8 -196 -31 -232 -24 -38 -81 -186 -98 -254 -9 -36 -18 -100 -20 -142
-2 -51 -9 -83 -19 -95 -40 -45 -148 -293 -159 -366 -2 -13 -13 -21 -32 -23
-16 -2 -41 -10 -55 -18 -26 -13 -98 -83 -124 -118 -12 -17 -18 -11 -62 65 -50
85 -177 223 -225 244 -47 21 -210 61 -285 70 -78 9 -361 8 -400 -1 -16 -4 -75
-9 -129 -11 -119 -3 -180 -23 -201 -64 -8 -16 -15 -38 -15 -48 0 -10 -9 -27
-21 -38 -34 -30 -86 -107 -93 -136 -3 -16 -10 -28 -14 -28 -12 0 -58 -44 -65
-62 -12 -33 -38 -19 -60 32 -9 19 -23 46 -31 60 -8 14 -28 54 -44 90 -44 98
-124 189 -209 235 -1 0 -5 16 -8 35 -8 47 -56 148 -90 188 -16 18 -43 41 -61
52 -30 19 -32 24 -33 75 -1 89 -36 190 -84 242 -19 22 -20 36 -23 615 -1 326
-3 600 -5 608 -1 8 2 40 7 70 5 30 9 94 9 142 0 73 2 85 15 78 8 -4 38 -18 65
-30z m1130 -2325 c78 -12 354 -12 405 0 14 3 41 8 60 11 19 3 37 8 39 10 3 2
13 -28 23 -67 23 -92 95 -237 162 -325 l52 -70 -88 -84 c-49 -46 -95 -85 -102
-86 -39 -6 -91 -29 -129 -58 l-43 -33 0 76 c0 94 -22 159 -70 201 -39 33 -77
39 -112 14 -20 -14 -24 -14 -44 0 -84 59 -173 -70 -165 -236 2 -38 2 -68 0
-68 -3 0 -17 8 -31 18 -36 25 -112 52 -144 52 -19 0 -29 7 -34 23 -10 31 -60
104 -104 152 -33 35 -37 46 -36 88 1 37 6 51 21 60 86 48 185 207 185 297 0
35 19 52 50 44 14 -3 61 -12 105 -19z"/>
<path d="M4499 3306 c-2 -2 -33 -6 -69 -10 -36 -3 -76 -8 -90 -11 -14 -3 -41
-8 -60 -11 -107 -17 -252 -73 -304 -116 -46 -38 -46 -48 2 -38 20 5 55 11 77
14 46 6 53 7 273 45 89 15 164 30 166 32 6 6 19 99 13 99 -2 0 -6 -2 -8 -4z"/>
<path d="M2629 3274 c4 -16 6 -34 4 -40 -7 -21 23 -31 162 -54 77 -12 163 -26
190 -31 28 -5 66 -11 85 -14 72 -12 96 -16 115 -22 35 -10 -34 56 -87 83 -95
48 -255 89 -396 100 l-81 7 8 -29z"/>
</g>
</svg>
